<svg xmlns="http://www.w3.org/2000/svg" width="100" height="100" viewBox="0 0 100 100"><path fill="#37BFF0" d="M72.926 46.915c.523-3.533 1.75-6.326 1.174-13.287-.38-4.61-4.105-14.73-16.574-17.766-2.44-.868-5.067-1.346-7.806-1.346s-5.363.478-7.804 1.346c-12.47 3.035-16.193 13.156-16.575 17.766-.577 6.99.66 9.777 1.18 13.332a4.965 4.965 0 0 0-3.645 5.406l.623 5.008a4.97 4.97 0 0 0 5.06 4.354c.305 2.566.578 4.766.764 6.28.742 6.05 2.816 7.294 7.618 10.495s8.004 4.98 12.78 4.98c4.777 0 7.98-1.78 12.782-4.98 4.8-3.2 6.875-4.445 7.617-10.494.185-1.52.458-3.724.765-6.296a4.963 4.963 0 0 0 5.22-4.34l.624-5.008a4.97 4.97 0 0 0-3.804-5.45z"/><circle opacity=".7" fill="#020303" cx="43.354" cy="51.112" r="2"/><circle opacity=".7" fill="#020303" cx="56.652" cy="51.112" r="2"/><path fill="#1E1E1C" d="M49.96 67.93h-.475c-4.128 0-6.106-1.763-6.188-1.84a.805.805 0 1 1 1.084-1.188c.012.01 1.646 1.42 5.104 1.42h.475c3.455 0 5.09-1.403 5.105-1.42a.805.805 0 1 1 1.084 1.19c-.082.075-2.062 1.837-6.19 1.837z" opacity=".4"/></svg>