<?xml version="1.0" encoding="utf-8"?>
<!-- Generator: Adobe Illustrator 16.0.4, SVG Export Plug-In . SVG Version: 6.00 Build 0)  -->
<!DOCTYPE svg PUBLIC "-//W3C//DTD SVG 1.1//EN" "http://www.w3.org/Graphics/SVG/1.1/DTD/svg11.dtd">
<svg version="1.1" xmlns="http://www.w3.org/2000/svg" xmlns:xlink="http://www.w3.org/1999/xlink" x="0px" y="0px" width="60px"
	 height="60px" viewBox="0 0 60 60" enable-background="new 0 0 60 60" xml:space="preserve">
<g id="_x22_grid_x22_" display="none">
	<g display="inline">
		<path fill="#ECECEC" d="M34.25-28.333v58h-58v-58H34.25 M35.25-29.333h-60v60h60V-29.333L35.25-29.333z"/>
	</g>
	<g display="inline">
		<path fill="#ECECEC" d="M94.25-28.333v58h-58v-58H94.25 M95.25-29.333h-60v60h60V-29.333L95.25-29.333z"/>
	</g>
	<g display="inline">
		<path fill="#ECECEC" d="M34.25,31.667v58h-58v-58H34.25 M35.25,30.667h-60v60h60V30.667L35.25,30.667z"/>
	</g>
	<g display="inline">
		<path fill="#ECECEC" d="M94.25,31.667v58h-58v-58H94.25 M95.25,30.667h-60v60h60V30.667L95.25,30.667z"/>
	</g>
</g>
<g id="Laag_2">
	<path fill="#FFFFFF" stroke="#219DC8" stroke-miterlimit="10" d="M13.184,28.835c0,0,3.73,1.4,6.045-3.688
		c2.314-5.089,7.123-4.964,8.823-3.98c2.94,1.703,2.427,6.141-2.688,6.141c-2.273,0-3.407,4.334-7.766,4.334
		C15.439,31.642,13.184,28.835,13.184,28.835z"/>
	<path fill="#FFFFFF" stroke="#219DC8" stroke-miterlimit="10" d="M47.857,28.835c0,0-3.73,1.4-6.045-3.688
		c-2.314-5.089-7.123-4.964-8.823-3.98c-2.94,1.703-2.427,6.141,2.688,6.141c2.273,0,3.407,4.334,7.766,4.334
		C45.602,31.642,47.857,28.835,47.857,28.835z"/>
	<path fill="#FFFFFF" stroke="#219DC8" stroke-miterlimit="10" d="M40.754,37.265c0,0-3.753,3.232-6.768,1.298
		c-2.757-1.769-4.467-1.769-7.224,0c-3.015,1.935-6.768-1.298-6.768-1.298s1.863,9.059,10.318,9.133c0,0.002,0,0.004,0,0.007
		c0.021,0,0.039-0.003,0.062-0.003c0.021,0,0.039,0.003,0.061,0.003c0-0.002,0-0.004,0-0.007
		C38.891,46.324,40.754,37.265,40.754,37.265z"/>
</g>
</svg>
