<svg xmlns="http://www.w3.org/2000/svg" width="60" height="60" viewBox="0 0 60 60"><g fill="#FFF" stroke="#219DC8" stroke-miterlimit="10"><path d="M13.184 28.835s3.73 1.4 6.045-3.688c2.313-5.09 7.122-4.964 8.822-3.98 2.94 1.703 2.427 6.14-2.688 6.14-2.273 0-3.407 4.335-7.766 4.335-2.16 0-4.414-2.807-4.414-2.807z"/><path d="M47.857 28.835s-3.73 1.4-6.045-3.688c-2.314-5.09-7.123-4.964-8.823-3.98-2.94 1.703-2.428 6.14 2.687 6.14 2.273 0 3.407 4.335 7.766 4.335 2.16 0 4.414-2.807 4.414-2.807zM40.754 37.265S37 40.497 33.986 38.563c-2.757-1.77-4.467-1.77-7.224 0-3.015 1.935-6.768-1.298-6.768-1.298s1.863 9.06 10.318 9.133v.007c.02 0 .04-.003.062-.003l.06.003v-.007c8.457-.074 10.32-9.133 10.32-9.133z"/></g></svg>