<?xml version="1.0" encoding="utf-8"?>
<!-- Generator: Adobe Illustrator 16.0.4, SVG Export Plug-In . SVG Version: 6.00 Build 0)  -->
<!DOCTYPE svg PUBLIC "-//W3C//DTD SVG 1.1//EN" "http://www.w3.org/Graphics/SVG/1.1/DTD/svg11.dtd">
<svg version="1.1" xmlns="http://www.w3.org/2000/svg" xmlns:xlink="http://www.w3.org/1999/xlink" x="0px" y="0px" width="60px"
	 height="60px" viewBox="0 0 60 60" enable-background="new 0 0 60 60" xml:space="preserve">
<g id="_x22_grid_x22_" display="none">
	<g display="inline">
		<path fill="#ECECEC" d="M34.25-28.333v58h-58v-58H34.25 M35.25-29.333h-60v60h60V-29.333L35.25-29.333z"/>
	</g>
	<g display="inline">
		<path fill="#ECECEC" d="M94.25-28.333v58h-58v-58H94.25 M95.25-29.333h-60v60h60V-29.333L95.25-29.333z"/>
	</g>
	<g display="inline">
		<path fill="#ECECEC" d="M34.25,31.667v58h-58v-58H34.25 M35.25,30.667h-60v60h60V30.667L35.25,30.667z"/>
	</g>
	<g display="inline">
		<path fill="#ECECEC" d="M94.25,31.667v58h-58v-58H94.25 M95.25,30.667h-60v60h60V30.667L95.25,30.667z"/>
	</g>
</g>
<g id="Laag_2">
	<path fill="none" stroke="#219DC8" stroke-miterlimit="10" d="M34.898,16.455h-16.59v29.553h8.577l1.679-21.067
		c0,0,0.377-1.444,0.756,0l1.679,21.067h8.576V16.455h-16.59"/>
	<path fill="#FFFFFF" stroke="#219DC8" stroke-miterlimit="10" d="M18.309,21.918c0,0,2.629-0.56,2.629-3.173"/>
	<rect x="18.309" y="14.131" fill="#FFFFFF" stroke="#219DC8" stroke-miterlimit="10" width="21.267" height="2.323"/>
	<line fill="#FFFFFF" stroke="#219DC8" stroke-miterlimit="10" x1="18.361" y1="43.671" x2="23.517" y2="43.671"/>
	<path fill="#FFFFFF" stroke="#219DC8" stroke-miterlimit="10" d="M39.575,21.918c0,0-2.628-0.56-2.628-3.173"/>
	<line fill="#FFFFFF" stroke="#219DC8" stroke-miterlimit="10" x1="39.523" y1="43.671" x2="34.368" y2="43.671"/>
</g>
</svg>
