<?xml version="1.0" encoding="utf-8"?>
<!-- Generator: Adobe Illustrator 16.0.4, SVG Export Plug-In . SVG Version: 6.00 Build 0)  -->
<!DOCTYPE svg PUBLIC "-//W3C//DTD SVG 1.1//EN" "http://www.w3.org/Graphics/SVG/1.1/DTD/svg11.dtd">
<svg version="1.1" xmlns="http://www.w3.org/2000/svg" xmlns:xlink="http://www.w3.org/1999/xlink" x="0px" y="0px" width="60px"
	 height="60px" viewBox="0 0 60 60" enable-background="new 0 0 60 60" xml:space="preserve">
<g id="_x22_grid_x22_" display="none">
</g>
<g id="Laag_2">
	<g id="Glasses_-_1_1_">
		<g id="glasses_1_1_">
			<g>
				<path fill="#FFFFFF" d="M38.329,39.796c-1.993,0-3.539-0.661-4.484-1.216c-0.407-0.24-1.772-1.105-2.318-2.196
					c-0.189-0.377-0.395-1.079-0.625-2.143c-0.027-0.065-0.049-0.129-0.066-0.195c-0.053-0.195-0.261-0.411-0.571-0.599
					c-0.309,0.188-0.516,0.403-0.569,0.6c-0.017,0.064-0.039,0.129-0.067,0.194c-0.229,1.064-0.435,1.766-0.626,2.144
					c-0.686,1.374-3.322,3.41-6.8,3.41c-0.239,0-0.482-0.008-0.723-0.028c-2.229-0.174-3.644-0.538-4.73-1.213
					c-1.254-0.779-2.013-1.95-2.375-3.668c-0.277-0.064-0.673-0.21-0.953-0.675c-0.346-0.574-0.497-1.939-0.647-3.533l-0.078-0.84
					l0.304-0.247c0.328-0.159,0.605-0.283,0.859-0.386l0.002-0.026l0.333-0.134l2.355-0.721c1.201-0.238,2.427-0.353,3.692-0.353
					c1.979,0,3.995,0.286,5.832,0.827c1.154,0.339,2.131,0.777,2.902,1.3c0.386,0.211,0.811,0.345,1.19,0.363l0.1,0.501l0.008-0.5
					c0.47-0.02,0.895-0.153,1.317-0.387c0.734-0.5,1.711-0.937,2.867-1.276c1.833-0.541,3.849-0.827,5.83-0.827
					c1.258,0,2.483,0.114,3.643,0.34l0.107,0.026l2.631,0.809l0.003,0.058c0.248,0.1,0.508,0.216,0.775,0.347l0.315,0.155
					l0.052,0.391l-0.058,0.579c-0.16,1.668-0.307,2.969-0.649,3.535c-0.272,0.459-0.676,0.609-0.953,0.675
					c-0.363,1.724-1.122,2.89-2.37,3.668c-1.089,0.676-2.505,1.04-4.734,1.214C38.811,39.788,38.568,39.796,38.329,39.796z
					 M33.329,31.841c-0.033,0.337-0.055,0.999,0.015,2.303c0.201,0.844,0.312,1.104,0.34,1.161c0.067,0.133,0.509,0.66,1.329,1.157
					c0.691,0.421,1.828,0.923,3.316,0.923c0.174,0,0.352-0.006,0.528-0.021c1.862-0.145,3.012-0.425,3.733-0.909
					c0.679-0.455,1.04-1.117,1.248-2.287c0.276-1.56,0.391-2.612,0.438-3.234l-0.896-0.275c-0.942-0.178-2.001-0.275-3.094-0.275
					c-1.753,0-3.534,0.251-5.148,0.727C34.445,31.314,33.838,31.56,33.329,31.841z M16.252,30.935
					c0.047,0.622,0.161,1.674,0.438,3.235c0.208,1.168,0.57,1.831,1.249,2.287c0.724,0.482,1.874,0.762,3.73,0.907
					c0.18,0.015,0.356,0.021,0.534,0.021c1.48,0,2.619-0.502,3.313-0.923c0.815-0.497,1.263-1.025,1.333-1.162
					c0.026-0.053,0.14-0.321,0.346-1.239c0.061-1.248,0.037-1.896,0.004-2.221c-0.506-0.28-1.112-0.525-1.809-0.73
					c-1.613-0.475-3.394-0.727-5.148-0.727c-1.094,0-2.152,0.097-3.146,0.288L16.252,30.935z"/>
				<path fill="#219DC8" d="M40.287,28.471c1.232,0,2.424,0.112,3.547,0.331l0.008,0.001l0.065,0.018l2.282,0.702l0.002,0.032
					c0.322,0.118,0.671,0.268,1.035,0.446l0.09,0.042l-0.011,0.098c-0.015,0.144-0.031,0.309-0.048,0.49
					c-0.113,1.184-0.267,2.805-0.579,3.322c-0.219,0.369-0.544,0.432-0.781,0.476c-0.064,0.013-0.127,0.025-0.173,0.042
					c-0.002,0.009-0.002,0.021-0.004,0.031c-0.309,1.731-1.008,2.883-2.202,3.627c-1.015,0.63-2.362,0.972-4.509,1.14
					c-0.227,0.019-0.455,0.026-0.681,0.026c-1.88,0-3.34-0.624-4.231-1.147c-0.771-0.455-1.737-1.215-2.124-1.988
					c-0.172-0.342-0.372-1.042-0.595-2.078c-0.027-0.056-0.046-0.11-0.061-0.165c-0.146-0.534-0.747-0.888-1.055-1.039
					c-0.308,0.151-0.908,0.506-1.052,1.039c-0.015,0.055-0.035,0.109-0.062,0.165c-0.222,1.036-0.422,1.736-0.595,2.078
					c-0.546,1.094-2.972,3.135-6.354,3.135c-0.226,0-0.455-0.008-0.682-0.026c-2.147-0.168-3.494-0.509-4.508-1.14
					c-1.196-0.744-1.896-1.896-2.204-3.627c-0.003-0.01-0.004-0.022-0.004-0.031c-0.046-0.017-0.108-0.029-0.173-0.042
					c-0.237-0.044-0.561-0.107-0.783-0.476c-0.311-0.517-0.466-2.138-0.577-3.322c-0.017-0.181-0.035-0.347-0.048-0.49l-0.011-0.098
					l0.089-0.042c0.365-0.178,0.714-0.328,1.036-0.446l0.002-0.032l2.355-0.721c1.122-0.22,2.314-0.331,3.546-0.331
					c1.936,0,3.902,0.28,5.69,0.806c1.107,0.326,2.037,0.742,2.764,1.234c0.49,0.271,0.99,0.427,1.447,0.448
					c0.023,0.001,0.044,0.002,0.066,0.002l0.046-0.001h0.011h0.008l0.046,0.001c0.024,0,0.045-0.001,0.067-0.002
					c0.458-0.022,0.956-0.177,1.446-0.448c0.728-0.493,1.658-0.909,2.766-1.234C36.386,28.75,38.356,28.471,40.287,28.471
					 M38.329,37.885c0.188,0,0.38-0.007,0.571-0.023c1.948-0.151,3.173-0.458,3.969-0.992c0.792-0.53,1.23-1.312,1.462-2.614
					c0.342-1.932,0.441-3.106,0.469-3.684l-1.272-0.391c-1.024-0.197-2.114-0.297-3.24-0.297c-1.799,0-3.628,0.258-5.29,0.747
					c-0.833,0.245-1.546,0.546-2.129,0.899c-0.002,0.009-0.003,0.02-0.005,0.031c-0.114,0.619-0.05,2.023-0.019,2.61
					c0.2,0.873,0.323,1.22,0.392,1.357c0.123,0.244,0.642,0.83,1.517,1.361C35.499,37.344,36.727,37.885,38.329,37.885
					 M22.203,37.885c1.599,0,2.824-0.542,3.572-0.995c0.875-0.533,1.394-1.118,1.519-1.36c0.068-0.138,0.193-0.486,0.39-1.358
					c0.031-0.589,0.096-1.994-0.019-2.61c0-0.01-0.003-0.021-0.005-0.031c-0.581-0.352-1.298-0.654-2.128-0.899
					c-1.659-0.489-3.49-0.747-5.29-0.747c-1.127,0-2.217,0.1-3.241,0.297l-1.272,0.393c0.027,0.576,0.127,1.75,0.469,3.683
					c0.231,1.302,0.67,2.083,1.463,2.615c0.798,0.532,2.021,0.838,3.97,0.99C21.82,37.878,22.012,37.885,22.203,37.885
					 M40.287,27.471c-2.028,0-4.094,0.293-5.973,0.847c-1.184,0.348-2.194,0.798-3.002,1.338c-0.344,0.185-0.681,0.291-0.976,0.305
					h-0.011l-0.054,0l-0.064,1.001v-1c-0.308-0.015-0.653-0.123-0.993-0.306c-0.808-0.54-1.817-0.99-3.002-1.338
					c-1.882-0.554-3.947-0.847-5.973-0.847c-1.298,0-2.556,0.118-3.738,0.35l-0.051,0.01l-0.05,0.015l-2.355,0.721l-0.663,0.203
					l-0.006,0.095c-0.169,0.074-0.341,0.153-0.515,0.238l-0.077,0.037l-0.646,0.305l0.078,0.709l0.011,0.098l0.022,0.226
					l0.023,0.246c0.162,1.717,0.316,3.081,0.716,3.746c0.278,0.46,0.646,0.689,0.96,0.811c0.415,1.688,1.248,2.902,2.533,3.701
					c1.16,0.721,2.643,1.106,4.958,1.288c0.25,0.021,0.507,0.029,0.76,0.029c3.688,0,6.506-2.201,7.248-3.688
					c0.132-0.26,0.344-0.776,0.656-2.214c0.029-0.072,0.054-0.144,0.073-0.219c0.007-0.019,0.035-0.056,0.085-0.104
					c0.053,0.051,0.083,0.091,0.091,0.113c0.019,0.07,0.041,0.139,0.067,0.207c0.314,1.439,0.525,1.956,0.658,2.22
					c0.606,1.211,2.074,2.144,2.51,2.4c1.001,0.587,2.634,1.286,4.739,1.286c0.253,0,0.509-0.009,0.763-0.03
					c2.311-0.181,3.794-0.566,4.954-1.287c1.285-0.801,2.117-2.015,2.532-3.701c0.314-0.121,0.685-0.352,0.961-0.816
					c0.393-0.65,0.543-1.95,0.712-3.713l0.05-0.507l0.01-0.09l0.078-0.712l-0.648-0.303l-0.09-0.042
					c-0.166-0.082-0.333-0.159-0.499-0.231l-0.004-0.061l-0.664-0.236l-2.282-0.702l-0.1-0.028l-0.067-0.018l-0.043-0.005
					C42.811,27.586,41.564,27.471,40.287,27.471L40.287,27.471z M33.809,32.154c0.426-0.212,0.918-0.401,1.471-0.563
					c1.57-0.462,3.302-0.707,5.008-0.707c1.042,0,2.051,0.09,2.999,0.269l0.457,0.14c-0.061,0.626-0.176,1.541-0.396,2.788
					c-0.225,1.263-0.63,1.687-1.034,1.958c-0.638,0.428-1.746,0.69-3.489,0.826c-0.172,0.015-0.334,0.021-0.494,0.021
					c-1.372,0-2.419-0.462-3.057-0.85c-0.729-0.443-1.1-0.888-1.152-0.975l0,0c0.001,0-0.09-0.209-0.281-1.03
					C33.79,33.073,33.793,32.494,33.809,32.154L33.809,32.154z M17.242,31.153c0.948-0.179,1.957-0.269,3-0.269
					c1.707,0,3.438,0.244,5.008,0.707c0.554,0.163,1.046,0.352,1.47,0.563c0.016,0.34,0.019,0.919-0.03,1.88
					c-0.19,0.834-0.288,1.045-0.292,1.054c-0.037,0.056-0.412,0.504-1.142,0.949c-0.639,0.387-1.688,0.849-3.053,0.849
					c-0.163,0-0.326-0.006-0.489-0.02c-1.749-0.136-2.858-0.398-3.499-0.826c-0.402-0.271-0.809-0.696-1.033-1.958
					c-0.221-1.247-0.336-2.162-0.396-2.787L17.242,31.153L17.242,31.153z"/>
			</g>
		</g>
	</g>
</g>
</svg>
