<svg xmlns="http://www.w3.org/2000/svg" width="60" height="60" viewBox="0 0 60 60"><path fill="#FFF" d="M38.33 39.796c-1.994 0-3.54-.66-4.485-1.216-.407-.24-1.772-1.105-2.318-2.196-.19-.377-.395-1.08-.625-2.143a1.444 1.444 0 0 1-.066-.194c-.053-.195-.26-.41-.57-.6-.31.19-.517.404-.57.6-.017.065-.04.13-.067.195-.23 1.065-.436 1.767-.627 2.145-.686 1.374-3.322 3.41-6.8 3.41a8.77 8.77 0 0 1-.723-.028c-2.23-.174-3.644-.538-4.73-1.213-1.254-.78-2.013-1.95-2.375-3.668a1.43 1.43 0 0 1-.953-.675c-.346-.573-.497-1.938-.647-3.532l-.078-.84.304-.247c.33-.158.606-.282.86-.385l.002-.026.333-.135 2.355-.72c1.2-.24 2.427-.354 3.692-.354 1.98 0 3.995.287 5.832.828 1.154.34 2.13.777 2.902 1.3.386.21.81.345 1.19.363l.1.502.008-.5a2.91 2.91 0 0 0 1.317-.387c.735-.5 1.712-.937 2.868-1.276 1.833-.542 3.85-.828 5.83-.828a19.1 19.1 0 0 1 3.643.34l.108.026 2.63.81.004.057c.248.1.508.216.775.347l.315.155.052.39-.058.58c-.16 1.668-.307 2.97-.65 3.535-.27.46-.675.61-.952.675-.363 1.724-1.122 2.89-2.37 3.668-1.09.676-2.505 1.04-4.734 1.214-.24.018-.482.026-.72.026zm-5-7.955c-.034.338-.056 1 .014 2.304.2.844.312 1.104.34 1.16.067.134.51.66 1.33 1.158a6.368 6.368 0 0 0 3.843.902c1.862-.145 3.012-.425 3.733-.91.68-.454 1.04-1.116 1.248-2.286.276-1.56.39-2.612.438-3.234l-.896-.275c-.942-.18-2-.276-3.094-.276-1.753 0-3.534.25-5.148.727-.693.204-1.3.45-1.81.73zm-17.078-.905c.047.622.16 1.674.438 3.235.208 1.168.57 1.83 1.25 2.287.723.482 1.873.762 3.73.907.18.015.355.02.533.02a6.39 6.39 0 0 0 3.313-.922c.815-.497 1.263-1.025 1.333-1.162.025-.053.14-.32.345-1.24.06-1.247.037-1.895.004-2.22a8.992 8.992 0 0 0-1.81-.73 18.476 18.476 0 0 0-5.148-.727 16.72 16.72 0 0 0-3.146.288l-.844.265z"/><path fill="#219DC8" d="M40.287 28.47c1.232 0 2.424.113 3.547.332h.008l.065.02 2.282.7v.033c.323.118.672.268 1.036.446l.09.043-.01.098c-.016.145-.032.31-.05.49-.112 1.185-.266 2.806-.578 3.323-.22.37-.544.432-.78.476-.065.012-.128.024-.174.04l-.004.032c-.31 1.73-1.008 2.883-2.202 3.627-1.015.63-2.362.97-4.51 1.14-.226.018-.454.025-.68.025-1.88 0-3.34-.624-4.23-1.147-.772-.455-1.738-1.215-2.125-1.988-.172-.342-.372-1.042-.595-2.078a.947.947 0 0 1-.06-.165c-.147-.534-.748-.888-1.056-1.04-.308.152-.908.507-1.052 1.04a.953.953 0 0 1-.062.165c-.222 1.036-.422 1.736-.595 2.078-.546 1.094-2.972 3.135-6.354 3.135-.227 0-.456-.008-.683-.026-2.147-.17-3.494-.51-4.508-1.14-1.197-.745-1.897-1.897-2.205-3.628a.115.115 0 0 1-.004-.03c-.045-.018-.107-.03-.172-.043-.237-.045-.56-.108-.783-.477-.31-.517-.466-2.138-.577-3.322-.017-.18-.035-.346-.048-.49l-.01-.097.088-.042c.365-.177.714-.327 1.036-.445l.002-.032 2.355-.72c1.123-.22 2.315-.332 3.547-.332 1.936 0 3.902.28 5.69.807 1.107.326 2.037.742 2.764 1.234.49.272.99.428 1.448.45h.244c.458-.023.956-.178 1.446-.45.728-.492 1.658-.908 2.766-1.233a20.46 20.46 0 0 1 5.693-.806m-1.958 9.415c.187 0 .38-.007.57-.023 1.948-.15 3.173-.458 3.97-.992.79-.53 1.23-1.312 1.46-2.614.343-1.932.442-3.106.47-3.684l-1.272-.39a17.204 17.204 0 0 0-3.24-.298c-1.8 0-3.628.258-5.29.747-.833.246-1.546.547-2.13.9 0 .01-.002.02-.004.03-.114.62-.05 2.024-.02 2.61.2.874.324 1.22.393 1.358.123.244.642.83 1.517 1.36a6.86 6.86 0 0 0 3.575.997m-16.127 0c1.6 0 2.824-.542 3.572-.995.875-.533 1.394-1.118 1.52-1.36.067-.138.192-.486.39-1.358.03-.59.095-1.994-.02-2.61 0-.01-.003-.02-.005-.03-.58-.353-1.298-.655-2.128-.9-1.66-.49-3.49-.747-5.29-.747-1.127 0-2.217.1-3.24.297l-1.273.393c.026.576.126 1.75.468 3.683.23 1.302.67 2.083 1.463 2.615.8.532 2.022.838 3.97.99.19.015.382.022.573.022M40.287 27.47a21.41 21.41 0 0 0-5.973.848c-1.184.348-2.194.798-3.002 1.338-.344.185-.68.29-.976.305h-.065l-.063 1.002v-1c-.308-.015-.653-.123-.993-.306-.808-.54-1.817-.99-3.002-1.338a21.436 21.436 0 0 0-5.973-.847 19.47 19.47 0 0 0-3.74.35l-.05.01-.05.016-2.355.72-.663.204-.006.095c-.17.074-.34.153-.515.238l-.076.037-.646.305.078.71.01.097.023.226.022.246c.162 1.717.316 3.08.716 3.746.278.46.646.69.96.81.415 1.69 1.248 2.903 2.533 3.702 1.16.72 2.644 1.106 4.96 1.288.25.02.506.03.76.03 3.687 0 6.505-2.202 7.247-3.69.132-.26.344-.775.656-2.213.03-.072.054-.144.073-.22a.375.375 0 0 1 .085-.103.39.39 0 0 1 .092.113c.02.07.04.14.067.207.313 1.44.524 1.956.657 2.22.606 1.21 2.074 2.144 2.51 2.4a9.378 9.378 0 0 0 5.502 1.256c2.31-.18 3.793-.566 4.953-1.287 1.285-.8 2.117-2.015 2.532-3.7.314-.122.685-.353.96-.817.394-.65.544-1.95.713-3.713l.05-.507.01-.09.078-.712-.648-.303-.09-.04c-.166-.083-.333-.16-.5-.232l-.003-.06-.664-.237-2.28-.7-.1-.03-.068-.017-.043-.005a19.224 19.224 0 0 0-3.703-.347zm-6.478 4.684c.425-.212.917-.4 1.47-.563a17.983 17.983 0 0 1 5.008-.706c1.042 0 2.05.09 3 .27l.456.14a36.64 36.64 0 0 1-.396 2.787c-.225 1.264-.63 1.688-1.034 1.96-.638.427-1.746.69-3.49.825a5.875 5.875 0 0 1-3.55-.83c-.728-.442-1.1-.887-1.15-.974 0 0-.09-.208-.282-1.03-.05-.957-.047-1.536-.03-1.876zm-16.568-1a16.22 16.22 0 0 1 3-.27c1.707 0 3.438.244 5.008.707a9.04 9.04 0 0 1 1.47.564c.016.34.02.92-.03 1.88-.19.834-.288 1.045-.292 1.054-.037.056-.412.504-1.142.95a5.893 5.893 0 0 1-3.542.828c-1.75-.136-2.858-.398-3.5-.826-.4-.27-.808-.696-1.032-1.958a35.69 35.69 0 0 1-.396-2.787l.456-.142z"/></svg>