<?xml version="1.0" encoding="utf-8"?>
<!-- Generator: Adobe Illustrator 16.0.4, SVG Export Plug-In . SVG Version: 6.00 Build 0)  -->
<!DOCTYPE svg PUBLIC "-//W3C//DTD SVG 1.1//EN" "http://www.w3.org/Graphics/SVG/1.1/DTD/svg11.dtd">
<svg version="1.1" xmlns="http://www.w3.org/2000/svg" xmlns:xlink="http://www.w3.org/1999/xlink" x="0px" y="0px" width="60px"
	 height="60px" viewBox="0 0 60 60" enable-background="new 0 0 60 60" xml:space="preserve">
<g id="_x22_grid_x22_" display="none">
	<g display="inline">
		<path fill="#ECECEC" d="M34.25-28.333v58h-58v-58H34.25 M35.25-29.333h-60v60h60V-29.333L35.25-29.333z"/>
	</g>
	<g display="inline">
		<path fill="#ECECEC" d="M94.25-28.333v58h-58v-58H94.25 M95.25-29.333h-60v60h60V-29.333L95.25-29.333z"/>
	</g>
	<g display="inline">
		<path fill="#ECECEC" d="M34.25,31.667v58h-58v-58H34.25 M35.25,30.667h-60v60h60V30.667L35.25,30.667z"/>
	</g>
	<g display="inline">
		<path fill="#ECECEC" d="M94.25,31.667v58h-58v-58H94.25 M95.25,30.667h-60v60h60V30.667L95.25,30.667z"/>
	</g>
</g>
<g id="Laag_2">
	<g>
		<path fill="#FFFFFF" d="M29.523,50.792c-0.208,0-0.391-0.083-0.522-0.22c-0.133,0.137-0.315,0.219-0.523,0.219h-0.936
			c-0.82,0-0.844-0.625-0.844-0.696c0-0.479,0.269-0.667,0.449-0.769c-0.062-0.482-0.147-1.329-0.216-2.008
			c-0.043-0.429-0.08-0.789-0.099-0.944c-0.106-0.891-0.395-2.188-0.514-2.705l-0.002-0.011c-0.112-0.323-0.225-0.928-0.408-2.064
			l-0.05-0.331c-0.026-0.177-0.073-0.505-0.134-0.846c-0.002,1.005,0.059,2.932,0.142,3.63c0.095,0.206,0.273,0.636,0.273,0.951
			c0,0.682-0.419,1.373-1.22,1.373c-0.38,0-0.733-0.157-0.994-0.443c-0.256-0.28-0.396-0.652-0.367-0.973
			c0.023-0.244,0.089-0.598,0.119-0.757c-0.083-0.626-0.37-2.853-0.333-3.384c0.007-0.096,0.004-0.29,0.001-0.543
			c-0.027-2.253,0.087-3.653,0.75-4.14c0.094-0.069,0.189-0.134,0.286-0.197c-0.24-0.15-0.489-0.312-0.752-0.486l-0.134-0.089
			c-1.854-1.235-2.784-1.855-3.098-4.42l-0.256-2.086c-1.087-0.188-1.915-1.038-2.05-2.122l-0.247-1.981
			c-0.131-1.061,0.444-2.075,1.379-2.526c-0.036-0.197-0.077-0.392-0.118-0.59c-0.218-1.054-0.465-2.248-0.286-4.404
			c0.169-2.043,1.838-6.234,6.939-7.476c1-0.357,2.096-0.546,3.207-0.546c1.112,0,2.207,0.188,3.255,0.561
			c5.054,1.227,6.723,5.418,6.892,7.461c0.18,2.16-0.068,3.354-0.287,4.409c-0.039,0.187-0.077,0.371-0.111,0.556
			c0.974,0.435,1.573,1.46,1.436,2.556l-0.245,1.98c-0.139,1.122-1.023,1.992-2.118,2.139l-0.251,2.069
			c-0.315,2.565-1.247,3.185-3.102,4.42l-0.133,0.088c-0.249,0.166-0.486,0.321-0.717,0.466c0.109,0.07,0.215,0.142,0.318,0.218
			c0.665,0.487,0.778,1.889,0.75,4.146c-0.003,0.25-0.007,0.442,0,0.539c0.038,0.528-0.249,2.754-0.332,3.381
			c0.031,0.161,0.097,0.516,0.119,0.758c0.029,0.32-0.112,0.693-0.367,0.973c-0.261,0.285-0.613,0.442-0.992,0.442
			c-0.802,0-1.221-0.691-1.221-1.373c0-0.315,0.18-0.746,0.275-0.952c0.084-0.707,0.144-2.665,0.141-3.634
			c-0.06,0.339-0.107,0.665-0.133,0.841l-0.052,0.342c-0.095,0.577-0.398,2.031-0.398,2.031l-0.073,0.349l-0.01,0.001
			c-0.121,0.542-0.352,1.624-0.443,2.394c-0.017,0.14-0.047,0.449-0.085,0.824c-0.07,0.693-0.163,1.608-0.23,2.13
			c0.199,0.115,0.452,0.313,0.452,0.769c0,0.071-0.023,0.696-0.845,0.696H29.523z"/>
		<path fill="#219DC8" d="M28.968,9.708c1.084,0,2.122,0.189,3.088,0.532c4.937,1.201,6.409,5.208,6.561,7.031
			c0.229,2.756-0.257,3.861-0.465,5.259c0.968,0.225,1.631,1.149,1.504,2.158L39.41,26.67c-0.123,0.996-0.971,1.722-1.949,1.722
			c-0.039,0-0.079-0.001-0.118-0.003c-0.12,1.017-0.229,1.89-0.302,2.491c-0.295,2.393-1.115,2.886-3.016,4.153
			c-0.508,0.339-0.968,0.63-1.411,0.886c0.326,0.187,0.674,0.381,0.993,0.616c0.73,0.535,0.512,3.781,0.548,4.316
			c0.039,0.535-0.34,3.364-0.34,3.364s0.101,0.486,0.128,0.788s-0.279,0.87-0.861,0.87c-0.593,0-0.721-0.599-0.721-0.873
			c0-0.275,0.261-0.809,0.261-0.809c0.113-0.808,0.183-3.671,0.145-4.261c-0.036-0.569-0.056-1.035-0.409-1.035
			c-0.014,0-0.027,0-0.042,0.002c-0.395,0.037-0.621,2.047-0.716,2.619c-0.094,0.572-0.395,2.011-0.395,2.011l-0.004,0
			c-0.001,0.004-0.398,1.689-0.529,2.787c-0.05,0.422-0.229,2.338-0.331,3.068c0,0.003,0.002,0.004,0.002,0.007
			c-0.008,0.104,0.034,0.246,0.18,0.326c0.168,0.093,0.282,0.129,0.282,0.38c0,0.109-0.071,0.196-0.345,0.196
			c-0.222,0-0.761,0-0.937,0c-0.184,0-0.246-0.168-0.246-0.304c0-0.206,0.091-0.262,0.091-0.559
			c-0.062-0.853,0.021-2.828,0.021-3.116c0-0.315-0.07-1.728-0.389-1.73c-0.317,0.002-0.389,1.415-0.389,1.73
			c0,0.288,0.083,2.263,0.022,3.116c0,0.295,0.091,0.353,0.091,0.559c0,0.136-0.063,0.304-0.247,0.304c-0.175,0-0.713,0-0.936,0
			c-0.273,0-0.344-0.086-0.344-0.196c0-0.251,0.113-0.288,0.282-0.381c0.144-0.08,0.189-0.221,0.179-0.326c0-0.002,0-0.003,0-0.007
			c-0.1-0.73-0.278-2.646-0.33-3.068c-0.131-1.098-0.529-2.783-0.529-2.787h-0.001c0,0-0.304-1.439-0.396-2.011
			c-0.094-0.571-0.321-2.582-0.714-2.619c-0.015-0.001-0.028-0.002-0.042-0.002c-0.354,0-0.374,0.466-0.412,1.035
			c-0.037,0.59,0.034,3.453,0.147,4.261c0,0,0.259,0.534,0.259,0.809c0,0.274-0.128,0.873-0.72,0.873
			c-0.584,0-0.891-0.569-0.863-0.87c0.029-0.301,0.128-0.788,0.128-0.788s-0.379-2.829-0.341-3.364
			c0.037-0.535-0.18-3.781,0.548-4.316c0.311-0.228,0.646-0.417,0.963-0.598c-0.452-0.26-0.924-0.556-1.447-0.904
			c-1.899-1.267-2.72-1.76-3.013-4.153c-0.074-0.6-0.183-1.47-0.305-2.486c-0.018,0-0.035,0-0.053,0
			c-0.977,0-1.824-0.728-1.948-1.724l-0.247-1.981c-0.122-0.986,0.51-1.892,1.443-2.141c-0.205-1.406-0.695-2.509-0.467-5.276
			c0.151-1.823,1.625-5.83,6.56-7.031C26.846,9.897,27.883,9.708,28.968,9.708 M28.968,8.708c-1.151,0-2.287,0.192-3.375,0.572
			c-5.34,1.325-7.091,5.748-7.27,7.908c-0.185,2.229,0.07,3.46,0.295,4.547c0.017,0.078,0.032,0.156,0.048,0.233
			c-0.918,0.607-1.457,1.702-1.315,2.842l0.247,1.982c0.147,1.19,0.992,2.146,2.092,2.476c0.07,0.579,0.134,1.09,0.186,1.502
			l0.028,0.23c0.342,2.791,1.461,3.537,3.316,4.773l0.134,0.089c0.061,0.04,0.12,0.08,0.179,0.118
			c-0.604,0.722-0.712,2.114-0.686,4.295c0.003,0.233,0.007,0.413,0,0.503c-0.038,0.541,0.2,2.448,0.326,3.403
			c-0.035,0.187-0.088,0.488-0.11,0.721c-0.043,0.469,0.143,0.975,0.495,1.361c0.356,0.391,0.841,0.606,1.363,0.606
			c0.625,0,1.089-0.302,1.377-0.728c0.015,0.1,0.027,0.196,0.038,0.287c0.02,0.157,0.056,0.514,0.099,0.938
			c0.057,0.563,0.124,1.231,0.182,1.729c-0.213,0.195-0.418,0.504-0.418,0.998c0,0.576,0.421,1.196,1.344,1.196h0.936
			c0.188,0,0.365-0.04,0.522-0.111c0.157,0.072,0.334,0.112,0.523,0.112h0.937c0.924,0,1.345-0.62,1.345-1.196
			c0-0.501-0.211-0.812-0.42-1.001c0.063-0.539,0.138-1.274,0.195-1.848c0.038-0.371,0.068-0.676,0.085-0.815
			c0.011-0.091,0.023-0.188,0.038-0.288c0.288,0.426,0.753,0.729,1.379,0.729c0.521,0,1.005-0.215,1.361-0.605
			c0.347-0.38,0.537-0.899,0.496-1.355c-0.021-0.236-0.075-0.54-0.111-0.729c0.127-0.956,0.364-2.862,0.324-3.405
			c-0.005-0.084-0.001-0.262,0.002-0.494c0.027-2.214-0.083-3.616-0.71-4.33c0.045-0.029,0.09-0.06,0.136-0.09l0.133-0.088
			c1.856-1.236,2.977-1.982,3.32-4.774l0.056-0.452c0.045-0.364,0.097-0.791,0.153-1.263c1.134-0.311,2.011-1.28,2.16-2.494
			l0.245-1.981c0.148-1.176-0.412-2.287-1.37-2.883c0.014-0.062,0.026-0.125,0.039-0.188c0.226-1.087,0.481-2.32,0.296-4.551
			c-0.179-2.161-1.93-6.584-7.271-7.908C31.255,8.901,30.12,8.708,28.968,8.708L28.968,8.708z"/>
	</g>
</g>
</svg>
