<svg xmlns="http://www.w3.org/2000/svg" width="60" height="60" viewBox="0 0 60 60"><path fill="#FFF" d="M29.523 50.792a.714.714 0 0 1-.522-.22.72.72 0 0 1-.522.22h-.936c-.82 0-.844-.626-.844-.697 0-.48.27-.667.45-.77-.063-.48-.148-1.328-.217-2.007-.042-.43-.08-.79-.098-.944-.106-.89-.395-2.188-.514-2.705l-.002-.012c-.112-.323-.225-.928-.408-2.064l-.05-.33c-.026-.178-.073-.506-.134-.847-.002 1.005.06 2.932.142 3.63.095.206.273.636.273.95 0 .683-.42 1.374-1.22 1.374-.38 0-.734-.156-.995-.442-.256-.28-.396-.652-.367-.973a9.67 9.67 0 0 1 .12-.757c-.084-.626-.37-2.853-.334-3.384.007-.096.004-.29 0-.543-.026-2.252.088-3.652.75-4.14.095-.068.19-.133.287-.196-.24-.15-.488-.312-.75-.486l-.135-.09c-1.854-1.234-2.784-1.854-3.098-4.42l-.256-2.085c-1.086-.188-1.914-1.038-2.05-2.122l-.246-1.98a2.478 2.478 0 0 1 1.38-2.526c-.037-.197-.078-.392-.12-.59-.217-1.054-.464-2.248-.285-4.404.168-2.043 1.837-6.234 6.938-7.476 1-.357 2.096-.546 3.207-.546a9.68 9.68 0 0 1 3.255.56c5.054 1.228 6.723 5.42 6.892 7.462.18 2.16-.068 3.354-.287 4.41-.04.186-.077.37-.11.555a2.46 2.46 0 0 1 1.435 2.556l-.245 1.98a2.468 2.468 0 0 1-2.118 2.14l-.25 2.07c-.316 2.564-1.248 3.184-3.103 4.42l-.133.087c-.248.166-.485.32-.716.466.11.07.215.142.318.218.665.488.778 1.89.75 4.147-.003.25-.007.442 0 .54.038.527-.25 2.753-.332 3.38.03.16.097.516.12.758.028.32-.113.693-.368.973-.26.285-.613.442-.992.442-.802 0-1.22-.69-1.22-1.373 0-.315.18-.746.274-.952.084-.707.144-2.665.14-3.634-.06.34-.106.666-.132.842l-.052.342c-.095.577-.398 2.03-.398 2.03l-.073.35h-.01c-.122.543-.353 1.625-.444 2.395-.017.14-.047.448-.085.823-.07.693-.162 1.608-.23 2.13.2.115.453.313.453.77 0 .07-.023.695-.845.695h-.935z"/><path fill="#219DC8" d="M28.968 9.708c1.084 0 2.122.19 3.088.532 4.937 1.2 6.41 5.208 6.56 7.03.23 2.757-.256 3.862-.464 5.26a1.965 1.965 0 0 1 1.504 2.158l-.246 1.982a1.964 1.964 0 0 1-2.067 1.72c-.12 1.016-.23 1.89-.302 2.49-.294 2.393-1.114 2.886-3.015 4.153-.508.34-.968.63-1.41.886.325.186.673.38.992.615.73.535.512 3.78.548 4.316.04.536-.34 3.365-.34 3.365s.1.486.128.788-.28.87-.86.87c-.594 0-.722-.6-.722-.873 0-.275.262-.81.262-.81.113-.807.183-3.67.145-4.26-.036-.57-.056-1.035-.41-1.035-.013 0-.026 0-.04.002-.396.037-.622 2.047-.717 2.62-.094.57-.395 2.01-.395 2.01H31.2c0 .004-.397 1.69-.528 2.787-.05.422-.23 2.338-.33 3.068v.007a.34.34 0 0 0 .18.325c.17.093.283.13.283.38 0 .11-.07.196-.345.196h-.937c-.184 0-.246-.167-.246-.303 0-.206.09-.262.09-.56-.06-.852.022-2.827.022-3.115 0-.315-.07-1.728-.39-1.73-.317.002-.39 1.415-.39 1.73 0 .288.084 2.263.023 3.116 0 .295.09.353.09.56 0 .135-.062.303-.246.303h-.936c-.272 0-.343-.085-.343-.195 0-.25.113-.288.282-.38.143-.08.188-.222.178-.327v-.007c-.1-.73-.278-2.645-.33-3.067-.13-1.098-.53-2.783-.53-2.787 0 0-.304-1.44-.396-2.01-.094-.572-.32-2.583-.714-2.62l-.042-.002c-.354 0-.374.466-.412 1.035-.037.59.034 3.452.147 4.26 0 0 .26.534.26.81 0 .273-.128.872-.72.872-.584 0-.89-.57-.863-.87.03-.3.128-.788.128-.788s-.38-2.83-.34-3.364c.036-.535-.18-3.78.547-4.316.31-.228.646-.417.963-.598-.452-.26-.924-.556-1.447-.904-1.9-1.267-2.72-1.76-3.013-4.153-.074-.6-.183-1.47-.305-2.487h-.053a1.966 1.966 0 0 1-1.948-1.724l-.248-1.982a1.968 1.968 0 0 1 1.443-2.14c-.205-1.407-.695-2.51-.467-5.277.15-1.822 1.625-5.83 6.56-7.03a9.222 9.222 0 0 1 3.09-.532m0-1c-1.15 0-2.287.192-3.375.572-5.34 1.325-7.09 5.748-7.27 7.908-.185 2.23.07 3.46.295 4.547l.048.233a2.98 2.98 0 0 0-1.315 2.842l.248 1.982a2.97 2.97 0 0 0 2.092 2.476c.07.58.134 1.09.186 1.502l.028.23c.342 2.79 1.46 3.537 3.316 4.773l.134.09c.06.04.12.08.18.117-.605.722-.713 2.114-.687 4.295.003.233.007.413 0 .503-.038.54.2 2.448.326 3.403a8.946 8.946 0 0 0-.11.722c-.043.47.143.975.495 1.36.356.392.84.607 1.363.607a1.61 1.61 0 0 0 1.378-.73c.015.1.027.197.038.288.02.157.056.514.1.938.056.563.123 1.23.18 1.73-.212.194-.417.503-.417.997 0 .576.42 1.196 1.343 1.196h.936c.187 0 .364-.04.52-.112.158.072.335.112.524.112h.937c.925 0 1.346-.62 1.346-1.196 0-.5-.21-.812-.42-1 .063-.54.138-1.275.195-1.85.04-.37.07-.675.086-.814.01-.09.023-.188.038-.288.288.426.753.73 1.38.73.52 0 1.004-.216 1.36-.606.347-.38.537-.9.496-1.355a8.262 8.262 0 0 0-.11-.728c.126-.956.363-2.862.323-3.405-.005-.084 0-.262.002-.494.027-2.214-.083-3.616-.71-4.33l.136-.09.134-.088c1.856-1.236 2.977-1.982 3.32-4.774l.056-.45c.045-.365.097-.792.153-1.264a2.967 2.967 0 0 0 2.16-2.494l.245-1.98a2.955 2.955 0 0 0-1.37-2.884l.04-.188c.225-1.087.48-2.32.295-4.55-.18-2.162-1.93-6.585-7.27-7.91a10.2 10.2 0 0 0-3.375-.572z"/></svg>