<?xml version="1.0" encoding="utf-8"?>
<!-- Generator: Adobe Illustrator 16.0.4, SVG Export Plug-In . SVG Version: 6.00 Build 0)  -->
<!DOCTYPE svg PUBLIC "-//W3C//DTD SVG 1.1//EN" "http://www.w3.org/Graphics/SVG/1.1/DTD/svg11.dtd">
<svg version="1.1" id="Laag_1" xmlns="http://www.w3.org/2000/svg" xmlns:xlink="http://www.w3.org/1999/xlink" x="0px" y="0px"
	 width="40px" height="40px" viewBox="0 0 40 40" enable-background="new 0 0 40 40" xml:space="preserve">
<path d="M21.971,13.78c0.867,0.936,0.856,2.412,0.832,2.842v1.431h0.948l-0.002-1.368c0.003-0.063,0.173-2.185-1.072-3.54
	c-0.681-0.741-1.634-1.117-2.833-1.117c-1.211,0-2.177,0.376-2.87,1.119c-1.218,1.304-1.114,3.31-1.113,3.33l0.001,1.577h0.95
	l-0.002-1.602c-0.001,0-0.091-1.642,0.857-2.658c0.514-0.55,1.226-0.817,2.176-0.817C20.775,12.978,21.471,13.241,21.971,13.78z"/>
<path d="M13.032,17.732v9.239h13.936v-9.239H13.032z M26.019,26.021H13.981v-7.34h12.037V26.021z"/>
</svg>
