<?xml version="1.0" encoding="utf-8"?>
<!-- Generator: Adobe Illustrator 16.0.4, SVG Export Plug-In . SVG Version: 6.00 Build 0)  -->
<!DOCTYPE svg PUBLIC "-//W3C//DTD SVG 1.1//EN" "http://www.w3.org/Graphics/SVG/1.1/DTD/svg11.dtd">
<svg version="1.1" id="Laag_1" xmlns="http://www.w3.org/2000/svg" xmlns:xlink="http://www.w3.org/1999/xlink" x="0px" y="0px"
	 width="40px" height="40px" viewBox="0 0 40 40" enable-background="new 0 0 40 40" xml:space="preserve">
<path d="M12.661,17.638v9.731h14.678v-9.731H12.661z M26.339,26.369H13.661v-7.731h12.678V26.369z"/>
<path d="M22.076,13.475c0.913,0.986,0.902,2.541,0.877,2.994v1.508h0.999l-0.003-1.441c0.004-0.067,0.182-2.301-1.13-3.729
	c-0.717-0.781-1.721-1.176-2.983-1.176c-1.275,0-2.292,0.396-3.022,1.178c-1.301,1.393-1.173,3.488-1.172,3.509l0.001,1.66h1
	l-0.001-1.688c-0.003-0.042-0.094-1.732,0.904-2.8c0.541-0.579,1.291-0.861,2.292-0.861C20.816,12.63,21.549,12.906,22.076,13.475z"
	/>
</svg>
