<?xml version="1.0" encoding="utf-8"?>
<!-- Generator: Adobe Illustrator 16.0.4, SVG Export Plug-In . SVG Version: 6.00 Build 0)  -->
<!DOCTYPE svg PUBLIC "-//W3C//DTD SVG 1.1//EN" "http://www.w3.org/Graphics/SVG/1.1/DTD/svg11.dtd">
<svg version="1.1" id="Laag_1" xmlns="http://www.w3.org/2000/svg" xmlns:xlink="http://www.w3.org/1999/xlink" x="0px" y="0px"
	 width="50px" height="10px" viewBox="0 0 50 10" enable-background="new 0 0 50 10" xml:space="preserve">
<path opacity="0.2" d="M17.459,5c0-0.814,0.551-1.387,1.321-1.387c0.771,0,1.299,0.572,1.299,1.387c0,0.792-0.506,1.386-1.321,1.386
	C17.987,6.387,17.459,5.793,17.459,5z"/>
<path opacity="0.2" d="M23.688,5c0-0.814,0.551-1.387,1.321-1.387c0.772,0,1.299,0.572,1.299,1.387c0,0.792-0.506,1.386-1.321,1.386
	C24.217,6.387,23.688,5.793,23.688,5z"/>
<path opacity="0.2" d="M29.919,5c0-0.814,0.553-1.387,1.322-1.387c0.769,0,1.298,0.572,1.298,1.387c0,0.792-0.506,1.386-1.321,1.386
	C30.448,6.387,29.919,5.793,29.919,5z"/>
</svg>
