<?xml version="1.0" encoding="utf-8"?>
<!-- Generator: Adobe Illustrator 16.0.4, SVG Export Plug-In . SVG Version: 6.00 Build 0)  -->
<!DOCTYPE svg PUBLIC "-//W3C//DTD SVG 1.1//EN" "http://www.w3.org/Graphics/SVG/1.1/DTD/svg11.dtd">
<svg version="1.1" id="Laag_1" xmlns="http://www.w3.org/2000/svg" xmlns:xlink="http://www.w3.org/1999/xlink" x="0px" y="0px"
	 width="50px" height="50px" viewBox="0 0 50 50" enable-background="new 0 0 50 50" xml:space="preserve">
<g>
	<path d="M20.151,75.837v5.736h-5.734v-5.736H20.151 M23.151,72.837H11.418v11.736h11.733V72.837L23.151,72.837z"/>
	<rect x="26.749" y="88.091" width="5.868" height="5.869"/>
	<rect x="35.061" y="90.536" width="2.972" height="2.973"/>
	<rect x="32.422" y="88.091" width="2.973" height="2.973"/>
	<rect x="26.749" y="95.952" width="3.876" height="3.875"/>
	<line fill="none" stroke="#000000" stroke-width="2" stroke-miterlimit="10" x1="16.256" y1="78.704" x2="18.1" y2="78.704"/>
	<path d="M20.151,91.093v5.734h-5.734v-5.734H20.151 M23.151,88.093H11.418v11.734h11.733V88.093L23.151,88.093z"/>
	<line fill="none" stroke="#000000" stroke-width="2" stroke-miterlimit="10" x1="16.256" y1="93.96" x2="18.1" y2="93.96"/>
	<path d="M35.581,75.837v5.736h-5.734v-5.736H35.581 M38.581,72.837H26.847v11.736h11.734V72.837L38.581,72.837z"/>
	<line fill="none" stroke="#000000" stroke-width="2" stroke-miterlimit="10" x1="31.686" y1="78.704" x2="33.529" y2="78.704"/>
</g>
<g>
	<path d="M19.557,12.302h-7.255v7.255h7.255V12.302z M21.372,10.486v10.886H10.486V10.486H21.372z M14.114,14.114h3.63v3.63h-3.63
		V14.114z M37.698,12.302h-7.255v7.255h7.255V12.302z M39.514,10.486v10.886H28.628V10.486H39.514z M32.256,14.114h3.63v3.63h-3.63
		V14.114z M19.557,30.443h-7.255v7.255h7.255V30.443z M21.372,28.628v10.886H10.486V28.628H21.372z M14.114,32.256h3.63v3.63h-3.63
		V32.256z M23.185,10.486H25v1.815h-1.815V10.486z M25,12.302h1.814v1.812H25V12.302z M23.185,14.114H25v1.815h-1.815V14.114z
		 M25,15.93h1.814v1.814H25V15.93z M23.185,17.744H25v1.812h-1.815V17.744z M25,19.557h1.814v1.815H25V19.557z M23.185,21.372H25
		v1.812h-1.815V21.372z M23.185,25H25v1.814h-1.815V25z M25,26.814h1.814v1.813H25V26.814z M23.185,28.628H25v1.815h-1.815V28.628z
		 M25,30.443h1.814v1.812H25V30.443z M23.185,32.256H25v1.814h-1.815V32.256z M25,34.07h1.814v1.815H25V34.07z M23.185,35.886H25
		v1.812h-1.815V35.886z M25,37.698h1.814v1.815H25V37.698z M37.698,25h1.815v1.814h-1.815V25z M12.302,25h1.812v1.814h-1.812V25z
		 M14.114,23.185h1.815V25h-1.815V23.185z M10.486,23.185h1.815V25h-1.815V23.185z M17.744,23.185h1.812V25h-1.812V23.185z
		 M19.557,25h1.815v1.814h-1.815V25z M21.372,23.185h1.812V25h-1.812V23.185z M26.814,25h1.813v1.814h-1.813V25z M28.628,23.185
		h1.815V25h-1.815V23.185z M30.443,25h1.812v1.814h-1.812V25z M32.256,23.185h1.814V25h-1.814V23.185z M34.07,25h1.815v1.814H34.07
		V25z M35.886,23.185h1.812V25h-1.812V23.185z M37.698,28.628h1.815v1.815h-1.815V28.628z M26.814,28.628h1.813v1.815h-1.813V28.628
		z M28.628,26.814h1.815v1.813h-1.815V26.814z M30.443,28.628h1.812v1.815h-1.812V28.628z M34.07,28.628h1.815v1.815H34.07V28.628z
		 M35.886,26.814h1.812v1.813h-1.812V26.814z M37.698,32.256h1.815v1.814h-1.815V32.256z M26.814,32.256h1.813v1.814h-1.813V32.256z
		 M28.628,30.443h1.815v1.812h-1.815V30.443z M32.256,30.443h1.814v1.812h-1.814V30.443z M34.07,32.256h1.815v1.814H34.07V32.256z
		 M35.886,30.443h1.812v1.812h-1.812V30.443z M37.698,35.886h1.815v1.812h-1.815V35.886z M28.628,34.07h1.815v1.815h-1.815V34.07z
		 M30.443,35.886h1.812v1.812h-1.812V35.886z M32.256,34.07h1.814v1.815h-1.814V34.07z M34.07,35.886h1.815v1.812H34.07V35.886z
		 M28.628,37.698h1.815v1.815h-1.815V37.698z M32.256,37.698h1.814v1.815h-1.814V37.698z M35.886,37.698h1.812v1.815h-1.812V37.698z
		 M35.886,37.698"/>
</g>
</svg>
