<svg xmlns="http://www.w3.org/2000/svg" width="50" height="50" viewBox="0 0 50 50"><path d="M20.15 75.837v5.736h-5.733v-5.736h5.734m3-3H11.42v11.736H23.15V72.837zM26.75 88.09h5.867v5.87H26.75zM35.06 90.536h2.973v2.973H35.06z"/><path d="M32.422 88.09h2.973v2.974h-2.973zM26.75 95.952h3.875v3.875H26.75z"/><path fill="none" stroke="#000" stroke-width="2" stroke-miterlimit="10" d="M16.256 78.704H18.1"/><path d="M20.15 91.093v5.734h-5.733v-5.734h5.734m3-3H11.42v11.734H23.15V88.093z"/><path fill="none" stroke="#000" stroke-width="2" stroke-miterlimit="10" d="M16.256 93.96H18.1"/><path d="M35.58 75.837v5.736h-5.733v-5.736h5.734m3-3H26.848v11.736H38.58V72.837z"/><path fill="none" stroke="#000" stroke-width="2" stroke-miterlimit="10" d="M31.686 78.704h1.843"/><g><path d="M19.557 12.302h-7.255v7.255h7.255v-7.255zm1.815-1.816v10.886H10.486V10.486h10.886zm-7.258 3.628h3.63v3.63h-3.63v-3.63zm23.584-1.812h-7.255v7.255h7.255v-7.255zm1.816-1.816v10.886H28.628V10.486h10.886zm-7.258 3.628h3.63v3.63h-3.63v-3.63zm-12.7 16.33h-7.254v7.254h7.255v-7.255zm1.816-1.816v10.886H10.486V28.628h10.886zm-7.258 3.628h3.63v3.63h-3.63v-3.63zm9.07-21.77H25V12.3h-1.815v-1.814zM25 12.302h1.814v1.812H25v-1.812zm-1.815 1.812H25v1.815h-1.815v-1.816zM25 15.93h1.814v1.814H25V15.93zm-1.815 1.814H25v1.812h-1.815v-1.812zM25 19.557h1.814v1.815H25v-1.815zm-1.815 1.815H25v1.812h-1.815v-1.812zm0 3.628H25v1.814h-1.815V25zM25 26.814h1.814v1.813H25v-1.813zm-1.815 1.814H25v1.815h-1.815v-1.815zM25 30.443h1.814v1.812H25v-1.812zm-1.815 1.813H25v1.814h-1.815v-1.814zM25 34.07h1.814v1.815H25V34.07zm-1.815 1.816H25v1.812h-1.815v-1.812zM25 37.698h1.814v1.815H25v-1.815zM37.698 25h1.815v1.814h-1.815V25zm-25.396 0h1.812v1.814h-1.812V25zm1.812-1.815h1.815V25h-1.816v-1.815zm-3.628 0H12.3V25h-1.814v-1.815zm7.258 0h1.812V25h-1.812v-1.815zM19.557 25h1.815v1.814h-1.815V25zm1.815-1.815h1.812V25h-1.812v-1.815zM26.814 25h1.813v1.814h-1.813V25zm1.814-1.815h1.815V25h-1.815v-1.815zM30.443 25h1.812v1.814h-1.812V25zm1.813-1.815h1.814V25h-1.814v-1.815zM34.07 25h1.815v1.814H34.07V25zm1.816-1.815h1.812V25h-1.812v-1.815zm1.812 5.443h1.815v1.815h-1.815v-1.815zm-10.884 0h1.813v1.815h-1.813v-1.815zm1.814-1.814h1.815v1.813h-1.815v-1.813zm1.815 1.814h1.812v1.815h-1.812v-1.815zm3.627 0h1.815v1.815H34.07v-1.815zm1.816-1.814h1.812v1.813h-1.812v-1.813zm1.812 5.442h1.815v1.814h-1.815v-1.814zm-10.884 0h1.813v1.814h-1.813v-1.814zm1.814-1.813h1.815v1.812h-1.815v-1.812zm3.628 0h1.814v1.812h-1.814v-1.812zm1.814 1.813h1.815v1.814H34.07v-1.814zm1.816-1.813h1.812v1.812h-1.812v-1.812zm1.812 5.443h1.815v1.812h-1.815v-1.812zm-9.07-1.816h1.815v1.815h-1.815V34.07zm1.815 1.816h1.812v1.812h-1.812v-1.812zm1.813-1.816h1.814v1.815h-1.814V34.07zm1.814 1.816h1.815v1.812H34.07v-1.812zm-5.442 1.812h1.815v1.815h-1.815v-1.815zm3.628 0h1.814v1.815h-1.814v-1.815zm3.63 0h1.812v1.815h-1.812v-1.815zm0 0"/></g></svg>