<?xml version="1.0" encoding="utf-8"?>
<!-- Generator: Adobe Illustrator 16.0.4, SVG Export Plug-In . SVG Version: 6.00 Build 0)  -->
<!DOCTYPE svg PUBLIC "-//W3C//DTD SVG 1.1//EN" "http://www.w3.org/Graphics/SVG/1.1/DTD/svg11.dtd">
<svg version="1.1" xmlns="http://www.w3.org/2000/svg" xmlns:xlink="http://www.w3.org/1999/xlink" x="0px" y="0px" width="60px"
	 height="60px" viewBox="0 0 60 60" enable-background="new 0 0 60 60" xml:space="preserve">
<g id="_x22_grid_x22_" display="none">
	<g display="inline">
		<path fill="#ECECEC" d="M34.25-28.333v58h-58v-58H34.25 M35.25-29.333h-60v60h60V-29.333L35.25-29.333z"/>
	</g>
	<g display="inline">
		<path fill="#ECECEC" d="M34.25,31.667v58h-58v-58H34.25 M35.25,30.667h-60v60h60V30.667L35.25,30.667z"/>
	</g>
</g>
<g id="Laag_2">
	<path fill="none" stroke="#219DC8" stroke-miterlimit="10" d="M26.649,25.522c-5.053,0.552-10.58,2.45-11.899,6.227
		c-1.321,3.781-0.987,6.202,0.347,6.202c1.52,0,26.968,0,29.042,0s2.04-3.658,1.881-5.583c-0.155-1.922,0.237-6.878-1.119-6.115
		c0,0-5.688,1.035-8.956,0.855C32.674,26.941,26.649,25.522,26.649,25.522z"/>
	<path fill="#FFFFFF" stroke="#219DC8" stroke-miterlimit="10" d="M47.096,37.57c0,0.684-0.562,1.258-1.256,1.258H14.175
		c-0.694,0-1.256-0.562-1.256-1.258l0,0c0-0.69,0.562-1.262,1.256-1.262h31.663C46.534,36.318,47.096,36.879,47.096,37.57
		L47.096,37.57z"/>
	<circle fill="none" stroke="#219DC8" stroke-miterlimit="10" cx="40.195" cy="31.74" r="1.868"/>
</g>
</svg>
