<svg xmlns="http://www.w3.org/2000/svg" width="60" height="60" viewBox="0 0 60 60"><g stroke="#219DC8" stroke-miterlimit="10"><path fill="none" d="M26.65 25.522c-5.054.552-10.58 2.45-11.9 6.227-1.32 3.78-.987 6.2.347 6.2H44.14c2.073 0 2.04-3.657 1.88-5.582-.155-1.922.237-6.878-1.12-6.115 0 0-5.687 1.035-8.955.855-3.27-.167-9.296-1.586-9.296-1.586z"/><path fill="#FFF" d="M47.096 37.57c0 .684-.562 1.258-1.256 1.258H14.175a1.256 1.256 0 0 1-1.256-1.258c0-.69.56-1.262 1.255-1.262h31.663a1.27 1.27 0 0 1 1.258 1.262z"/><circle fill="none" cx="40.195" cy="31.74" r="1.868"/></g></svg>