<svg xmlns="http://www.w3.org/2000/svg" width="60" height="60" viewBox="0 0 60 60"><path fill="#FFF" stroke="#219DC8" stroke-miterlimit="10" d="M14.006 37.273s-.095-4.45-.3-5.913c-.22-1.565.244-5.227 1.398-6.808s3.11-4.338 8.004-4.93c8.096-.982 12.914-1.823 13.44-4.722.638 5.33-.774 6.425-.774 6.425s.488.25 1.825 1.294a8.817 8.817 0 0 1 3.26 7.767c-.342 3.524-.244 6.927-.343 6.938-.098.01-.376-.166-.474-.048s-.38.325-.634 4.825c-.06.523-.363.54-.358.278.176-8.86-1.234-9.04-1.17-10.564.076-1.743.985-4.568-.485-6.51-1.94-2.563-4.62.368-9.902.368s-9.313-2.718-10.455-.698c-1.143 2.02-.505 5.185-.418 5.97.24 2.155-1.28 4.097-1.213 6.278.06 2 .144 3.988.087 4.88-.05.786-.355.6-.394 0-.36-5.64-.778-4.95-.778-4.95l-.32.12z"/></svg>