<?xml version="1.0" encoding="utf-8"?>
<!-- Generator: Adobe Illustrator 16.0.4, SVG Export Plug-In . SVG Version: 6.00 Build 0)  -->
<!DOCTYPE svg PUBLIC "-//W3C//DTD SVG 1.1//EN" "http://www.w3.org/Graphics/SVG/1.1/DTD/svg11.dtd">
<svg version="1.1" xmlns="http://www.w3.org/2000/svg" xmlns:xlink="http://www.w3.org/1999/xlink" x="0px" y="0px" width="60px"
	 height="60px" viewBox="0 0 60 60" enable-background="new 0 0 60 60" xml:space="preserve">
<g id="_x22_grid_x22_" display="none">
	<g display="inline">
		<path fill="#ECECEC" d="M34.25-28.333v58h-58v-58H34.25 M35.25-29.333h-60v60h60V-29.333L35.25-29.333z"/>
	</g>
	<g display="inline">
		<path fill="#ECECEC" d="M34.25,31.667v58h-58v-58H34.25 M35.25,30.667h-60v60h60V30.667L35.25,30.667z"/>
	</g>
</g>
<g id="Laag_2">
	<g id="snit_-_3">
		<path fill="#FFFFFF" stroke="#219DC8" stroke-miterlimit="10" d="M14.006,37.273c0,0-0.095-4.449-0.3-5.913
			c-0.22-1.565,0.244-5.227,1.398-6.808s3.11-4.338,8.004-4.931c8.096-0.981,12.914-1.822,13.44-4.721
			c0.638,5.331-0.774,6.425-0.774,6.425s0.488,0.25,1.825,1.294c1.719,1.343,3.619,4.092,3.261,7.768
			c-0.342,3.524-0.244,6.927-0.343,6.938c-0.098,0.011-0.376-0.166-0.474-0.048s-0.38,0.325-0.634,4.825
			c-0.06,0.523-0.362,0.54-0.357,0.278c0.176-8.861-1.234-9.039-1.169-10.564c0.075-1.743,0.984-4.568-0.486-6.509
			c-1.941-2.564-4.619,0.367-9.902,0.367s-9.313-2.718-10.455-0.698c-1.143,2.02-0.505,5.185-0.418,5.971
			c0.239,2.154-1.28,4.096-1.213,6.277c0.061,2,0.145,3.988,0.088,4.879c-0.05,0.787-0.355,0.601-0.394,0
			c-0.361-5.64-0.778-4.95-0.778-4.95L14.006,37.273z"/>
	</g>
</g>
</svg>
