<?xml version="1.0" encoding="utf-8"?>
<!-- Generator: Adobe Illustrator 16.0.4, SVG Export Plug-In . SVG Version: 6.00 Build 0)  -->
<!DOCTYPE svg PUBLIC "-//W3C//DTD SVG 1.1//EN" "http://www.w3.org/Graphics/SVG/1.1/DTD/svg11.dtd">
<svg version="1.1" xmlns="http://www.w3.org/2000/svg" xmlns:xlink="http://www.w3.org/1999/xlink" x="0px" y="0px" width="60px"
	 height="60px" viewBox="0 0 60 60" enable-background="new 0 0 60 60" xml:space="preserve">
<g id="_x22_grid_x22_" display="none">
	<g display="inline">
		<path fill="#ECECEC" d="M34.25-28.333v58h-58v-58H34.25 M35.25-29.333h-60v60h60V-29.333L35.25-29.333z"/>
	</g>
	<g display="inline">
		<path fill="#ECECEC" d="M94.25-28.333v58h-58v-58H94.25 M95.25-29.333h-60v60h60V-29.333L95.25-29.333z"/>
	</g>
	<g display="inline">
		<path fill="#ECECEC" d="M34.25,31.667v58h-58v-58H34.25 M35.25,30.667h-60v60h60V30.667L35.25,30.667z"/>
	</g>
	<g display="inline">
		<path fill="#ECECEC" d="M94.25,31.667v58h-58v-58H94.25 M95.25,30.667h-60v60h60V30.667L95.25,30.667z"/>
	</g>
</g>
<g id="Laag_2">
	<polygon fill="none" stroke="#219DC8" stroke-miterlimit="10" points="41.847,45.286 17.386,45.286 19.829,20.034 38.588,20.034 	
		"/>
	<path fill="#FFFFFF" stroke="#219DC8" stroke-miterlimit="10" d="M20.135,23.664l-1.007,4.547l-5.398-1.77
		c0,0,4.887-11.375,8.408-11.375c0,0,0.053,0,2.715,0c0,0,0.726,3.116,4.438,3.116s4.671-3.116,4.671-3.116c2.661,0,2.714,0,2.714,0
		c3.624,0,9.345,11.375,9.345,11.375l-6.334,1.77l-1.007-4.547"/>
	<line fill="#FFFFFF" stroke="#219DC8" stroke-miterlimit="10" x1="36.02" y1="42.775" x2="41.522" y2="42.775"/>
	<path fill="#FFFFFF" stroke="#219DC8" stroke-miterlimit="10" d="M24.853,15.066c0,0,2.567,2.378,9.108,0"/>
</g>
</svg>
