<?xml version="1.0" encoding="utf-8"?>
<!-- Generator: Adobe Illustrator 16.0.4, SVG Export Plug-In . SVG Version: 6.00 Build 0)  -->
<!DOCTYPE svg PUBLIC "-//W3C//DTD SVG 1.1//EN" "http://www.w3.org/Graphics/SVG/1.1/DTD/svg11.dtd">
<svg version="1.1" id="Laag_1" xmlns="http://www.w3.org/2000/svg" xmlns:xlink="http://www.w3.org/1999/xlink" x="0px" y="0px"
	 width="60px" height="60px" viewBox="0 0 60 60" enable-background="new 0 0 60 60" xml:space="preserve">
<g id="_x22_grid_x22_" display="none">
	<g display="inline">
		<path fill="#ECECEC" d="M34.25-28.333v58h-58v-58H34.25 M35.25-29.333h-60v60h60V-29.333L35.25-29.333z"/>
	</g>
	<g display="inline">
		<path fill="#ECECEC" d="M34.25,31.667v58h-58v-58H34.25 M35.25,30.667h-60v60h60V30.667L35.25,30.667z"/>
	</g>
</g>
<rect x="11.877" y="29.9" fill="#FFFFFF" stroke="#219DC8" stroke-miterlimit="10" width="35.532" height="15.229"/>
<g>
	<rect x="14.646" y="35.438" fill="#FFFFFF" stroke="#219DC8" stroke-miterlimit="10" width="11.536" height="9.691"/>
	<rect x="20.184" y="40.052" fill="#FFFFFF" stroke="#219DC8" stroke-miterlimit="10" width="0.692" height="0.462"/>
</g>
<polygon fill="#FFFFFF" stroke="#219DC8" stroke-miterlimit="10" points="48.253,30.361 10.998,30.361 19.133,17.673 40.118,17.673 
	"/>
<rect x="10.493" y="29.9" fill="#FFFFFF" stroke="#219DC8" stroke-miterlimit="10" width="37.839" height="1.384"/>
<rect x="29.412" y="36.129" fill="#FFFFFF" stroke="#219DC8" stroke-miterlimit="10" width="4.614" height="9"/>
</svg>
